M48
;Layer_Color=9474304
;FILE_FORMAT=2:5
INCH,LZ
;TYPE=PLATED
T1F00S00C0.02800
T2F00S00C0.03937
T4F00S00C0.12795
T5F00S00C0.25000
%
T01
X01515Y00485
X02005Y00395
X02525Y006224
Y007776
X0213Y0122
X03365Y0104
Y0017
X03305Y0212
Y02255
Y02395
Y0253
Y0267
Y02805
Y0294
X029176Y030426
X02405Y03605
X0232Y0361
X01575Y03605
X01485Y0361
X0316
X0325Y03605
T02
X0114705Y0011142
Y0028858
X0140295
Y0011142
X0162705
Y0028858
X0188295
Y0011142
X0181Y0157
Y0167
Y0177
Y0187
Y0197
Y0207
Y0217
Y0227
Y0237
Y0247
Y0257
Y0267
Y0277
Y0287
Y0297
X02365
Y0287
Y0277
Y0267
Y0257
Y0247
Y0237
Y0227
Y0217
Y0207
Y0197
Y0187
Y0177
Y0167
Y0157
T04
X03365Y0035
Y0085
T05
X0115Y0085
X035Y0116
X0115Y04465
X035Y03135
M30
