G04*
G04 #@! TF.GenerationSoftware,Altium Limited,Altium Designer,21.7.2 (23)*
G04*
G04 Layer_Color=16711935*
%FSLAX25Y25*%
%MOIN*%
G70*
G04*
G04 #@! TF.SameCoordinates,2167A7DA-B4CF-4ED0-A09D-CB439950EC41*
G04*
G04*
G04 #@! TF.FilePolarity,Negative*
G04*
G01*
G75*
%ADD30R,0.08800X0.18800*%
%ADD31R,0.18800X0.08800*%
%ADD32C,0.06800*%
%ADD33O,0.08674X0.07099*%
%ADD34R,0.08674X0.07099*%
%ADD35C,0.07690*%
%ADD36C,0.05800*%
D30*
X19000Y433500D02*
D03*
X46559D02*
D03*
X19000Y367333D02*
D03*
X46559D02*
D03*
X18941Y301167D02*
D03*
X46500D02*
D03*
X19000Y235000D02*
D03*
X46559D02*
D03*
X19000Y168833D02*
D03*
X46559D02*
D03*
X19000Y102667D02*
D03*
X46559D02*
D03*
X19000Y36500D02*
D03*
X46559D02*
D03*
D31*
X171500Y385441D02*
D03*
Y413000D02*
D03*
X256000Y385441D02*
D03*
Y413000D02*
D03*
X338500Y385941D02*
D03*
Y413500D02*
D03*
D32*
X350000Y116000D02*
D03*
Y313500D02*
D03*
X115000Y85000D02*
D03*
Y446500D02*
D03*
X336500Y85000D02*
D03*
Y35000D02*
D03*
D33*
X236500Y157000D02*
D03*
Y167000D02*
D03*
Y177000D02*
D03*
Y187000D02*
D03*
Y197000D02*
D03*
Y207000D02*
D03*
Y217000D02*
D03*
Y227000D02*
D03*
Y237000D02*
D03*
Y247000D02*
D03*
Y257000D02*
D03*
Y267000D02*
D03*
Y277000D02*
D03*
Y287000D02*
D03*
X181000Y157000D02*
D03*
Y167000D02*
D03*
Y177000D02*
D03*
Y187000D02*
D03*
Y197000D02*
D03*
Y207000D02*
D03*
Y217000D02*
D03*
Y227000D02*
D03*
Y237000D02*
D03*
Y247000D02*
D03*
Y257000D02*
D03*
Y267000D02*
D03*
Y277000D02*
D03*
Y287000D02*
D03*
D34*
X236500Y297000D02*
D03*
X181000D02*
D03*
D35*
X114705Y28858D02*
D03*
X140295D02*
D03*
X114705Y11142D02*
D03*
X140295D02*
D03*
X162705Y28858D02*
D03*
X188295D02*
D03*
X162705Y11142D02*
D03*
X188295D02*
D03*
D36*
X291760Y304260D02*
D03*
X336500Y17000D02*
D03*
Y104000D02*
D03*
X151500Y48500D02*
D03*
X200500Y39500D02*
D03*
X157500Y360500D02*
D03*
X325000D02*
D03*
X240500D02*
D03*
X148500Y361000D02*
D03*
X232000D02*
D03*
X316000D02*
D03*
X213000Y122000D02*
D03*
X330500Y212000D02*
D03*
Y225500D02*
D03*
Y239500D02*
D03*
Y253000D02*
D03*
Y267000D02*
D03*
Y280500D02*
D03*
Y294000D02*
D03*
X252500Y62240D02*
D03*
Y77760D02*
D03*
M02*
