G04*
G04 #@! TF.GenerationSoftware,Altium Limited,Altium Designer,21.7.2 (23)*
G04*
G04 Layer_Color=32896*
%FSLAX25Y25*%
%MOIN*%
G70*
G04*
G04 #@! TF.SameCoordinates,2167A7DA-B4CF-4ED0-A09D-CB439950EC41*
G04*
G04*
G04 #@! TF.FilePolarity,Positive*
G04*
G01*
G75*
%ADD10C,0.01000*%
D10*
X360665Y269334D02*
Y272000D01*
X356666D01*
Y269334D01*
X358666Y272000D02*
Y270667D01*
X356666Y268001D02*
Y266668D01*
Y267335D01*
X360665D01*
X359999Y268001D01*
X360665Y264669D02*
Y262003D01*
X359999D01*
X357333Y264669D01*
X356666D01*
X359999Y260670D02*
X360665Y260004D01*
Y258671D01*
X359999Y258004D01*
X357333D01*
X356666Y258671D01*
Y260004D01*
X357333Y260670D01*
X359999D01*
X360665Y254006D02*
X359999Y255339D01*
X358666Y256672D01*
X357333D01*
X356666Y256005D01*
Y254672D01*
X357333Y254006D01*
X357999D01*
X358666Y254672D01*
Y256672D01*
X360665Y252673D02*
X356666D01*
Y250674D01*
X357333Y250007D01*
X359999D01*
X360665Y250674D01*
Y252673D01*
X356000Y248674D02*
Y246008D01*
X356666Y242010D02*
Y244675D01*
X359332Y242010D01*
X359999D01*
X360665Y242676D01*
Y244009D01*
X359999Y244675D01*
M02*
