M48
;Layer_Color=9474304
;FILE_FORMAT=2:5
INCH,LZ
;TYPE=PLATED
T3F00S00C0.05000
%
G90
G05
T03
G00X0019Y0032
M15
G01Y0041
M16
G00X0046559Y0032
M15
G01Y0041
M16
G00X0046559Y0098167
M15
G01Y0107167
M16
G00X0019Y0098167
M15
G01Y0107167
M16
G00X0019Y0164333
M15
G01Y0173333
M16
G00X0046559Y0164333
M15
G01Y0173333
M16
G00X0046559Y02305
M15
G01Y02395
M16
G00X0019Y02305
M15
G01Y02395
M16
G00X0018941Y0296667
M15
G01Y0305667
M16
G00X00465Y0296667
M15
G01Y0305667
M16
G00X0046559Y0362833
M15
G01Y0371833
M16
G00X0019Y0362833
M15
G01Y0371833
M16
G00X0019Y0429
M15
G01Y0438
M16
G00X0046559Y0429
M15
G01Y0438
M16
G00X0176Y0413
M15
G01X0167
M16
G00X0176Y0385441
M15
G01X0167
M16
G00X02605Y0385441
M15
G01X02515
M16
G00X02605Y0413
M15
G01X02515
M16
G00X0343Y04135
M15
G01X0334
M16
G00X0343Y0385941
M15
G01X0334
M16
M30
