G04*
G04 #@! TF.GenerationSoftware,Altium Limited,Altium Designer,21.7.2 (23)*
G04*
G04 Layer_Physical_Order=1*
G04 Layer_Color=255*
%FSLAX25Y25*%
%MOIN*%
G70*
G04*
G04 #@! TF.SameCoordinates,2167A7DA-B4CF-4ED0-A09D-CB439950EC41*
G04*
G04*
G04 #@! TF.FilePolarity,Positive*
G04*
G01*
G75*
%ADD10C,0.01000*%
%ADD15R,0.03150X0.03150*%
%ADD16R,0.05709X0.03937*%
%ADD17R,0.02362X0.06102*%
%ADD18R,0.03937X0.05709*%
%ADD19R,0.03150X0.03150*%
%ADD20R,0.15354X0.09843*%
%ADD21R,0.03347X0.03347*%
%ADD22R,0.12008X0.02402*%
%ADD37C,0.02000*%
%ADD38C,0.05000*%
%ADD39R,0.08000X0.18000*%
%ADD40R,0.18000X0.08000*%
%ADD41C,0.06000*%
%ADD42O,0.07874X0.06299*%
%ADD43R,0.07874X0.06299*%
%ADD44C,0.06890*%
%ADD45C,0.05000*%
D10*
X333744Y25866D02*
X336500D01*
X297130Y45984D02*
X313626D01*
X333744Y25866D01*
X297130Y53984D02*
Y57984D01*
Y49984D02*
Y53984D01*
Y45984D02*
Y49984D01*
X336500Y17000D02*
Y25866D01*
Y94134D02*
Y104000D01*
X151500Y24240D02*
Y47000D01*
X200500Y24240D02*
Y39500D01*
X181787Y257000D02*
X196500Y242287D01*
Y49500D02*
X209500Y36500D01*
X196500Y49500D02*
Y242287D01*
X194500Y26500D02*
Y234287D01*
X181787Y247000D02*
X194500Y234287D01*
X188295Y20295D02*
X194500Y26500D01*
X209500Y16500D02*
Y36500D01*
X199197Y6197D02*
X209500Y16500D01*
X188295Y11142D02*
Y20295D01*
X181000Y257000D02*
X181787D01*
X185944Y6500D02*
X186247Y6197D01*
X199197D01*
X176500Y6500D02*
X185944D01*
X198142Y11142D02*
X200500Y13500D01*
X188295Y11142D02*
X198142D01*
X166240Y16760D02*
X176500Y6500D01*
X151500Y16760D02*
X166240D01*
X181000Y247000D02*
X181787D01*
X200500Y13500D02*
Y16260D01*
X151377Y16637D02*
X151500Y16760D01*
X140295Y11142D02*
X148642D01*
X151377Y13877D02*
Y16637D01*
X148642Y11142D02*
X151377Y13877D01*
X242240Y83500D02*
X256303D01*
X242240Y83500D02*
X242240Y83500D01*
X256303D02*
X258563Y81240D01*
X242240Y74833D02*
X243314Y73760D01*
X258563D01*
X242314Y66240D02*
X258563D01*
X242240Y66167D02*
X242314Y66240D01*
X242240Y57468D02*
Y57500D01*
Y57468D02*
X243709Y56000D01*
X255803D01*
X258563Y58760D01*
X280260Y81240D02*
X287516Y73984D01*
X297130D01*
X275000Y81240D02*
X280260D01*
X284535Y69984D02*
X297130D01*
X280760Y73760D02*
X284535Y69984D01*
X275000Y73760D02*
X280760D01*
X282500Y65500D02*
X296646D01*
X297130Y65984D01*
X275000Y66240D02*
X281760D01*
X282500Y65500D01*
X282484Y61984D02*
X297130D01*
X279260Y58760D02*
X282484Y61984D01*
X275000Y58760D02*
X279260D01*
X258563D02*
X275000D01*
X258563Y66240D02*
X275000D01*
X258563Y73760D02*
X275000D01*
X258563Y81240D02*
X275000D01*
X213000Y73500D02*
Y92500D01*
Y73500D02*
X229000Y57500D01*
X234760D01*
X218000Y77500D02*
Y92500D01*
X229333Y66167D02*
X234760D01*
X218000Y77500D02*
X229333Y66167D01*
X223000Y82000D02*
Y92500D01*
X230167Y74833D02*
X234760D01*
X223000Y82000D02*
X230167Y74833D01*
X228000Y86000D02*
Y92500D01*
Y86000D02*
X230500Y83500D01*
X234760D01*
X266177Y62240D02*
X266437Y62500D01*
X252500Y62240D02*
X266177D01*
X252760Y77500D02*
X266437D01*
X252500Y77760D02*
X252760Y77500D01*
D15*
X148500Y352892D02*
D03*
Y346987D02*
D03*
X232000Y352892D02*
D03*
Y346987D02*
D03*
X316000Y352892D02*
D03*
Y346987D02*
D03*
D16*
X157500Y345760D02*
D03*
Y353240D02*
D03*
X200500Y16760D02*
D03*
Y24240D02*
D03*
X151500Y16760D02*
D03*
Y24240D02*
D03*
X275000Y66240D02*
D03*
Y58760D02*
D03*
X240500Y345760D02*
D03*
Y353240D02*
D03*
X325000Y345760D02*
D03*
Y353240D02*
D03*
X275000Y81240D02*
D03*
Y73760D02*
D03*
D17*
X228000Y113760D02*
D03*
X223000D02*
D03*
X218000D02*
D03*
X213000D02*
D03*
X228000Y92500D02*
D03*
X223000D02*
D03*
X218000D02*
D03*
X213000D02*
D03*
D18*
X299240Y225667D02*
D03*
X291760D02*
D03*
X299240Y239333D02*
D03*
X291760D02*
D03*
X299240Y266667D02*
D03*
X291760D02*
D03*
X299240Y253000D02*
D03*
X291760D02*
D03*
X299240Y212000D02*
D03*
X291760D02*
D03*
X299240Y294000D02*
D03*
X291760D02*
D03*
X299240Y280333D02*
D03*
X291760D02*
D03*
X242240Y57500D02*
D03*
X234760D02*
D03*
X242240Y66167D02*
D03*
X234760D02*
D03*
X242240Y83500D02*
D03*
X234760D02*
D03*
X242240Y74833D02*
D03*
X234760D02*
D03*
D19*
X322953Y280333D02*
D03*
X317047D02*
D03*
X322953Y294000D02*
D03*
X317047D02*
D03*
X322953Y266667D02*
D03*
X317047D02*
D03*
X322953Y239333D02*
D03*
X317047D02*
D03*
X322953Y212000D02*
D03*
X317047D02*
D03*
X322953Y253000D02*
D03*
X317047D02*
D03*
X322953Y225667D02*
D03*
X317047D02*
D03*
D20*
X336500Y25866D02*
D03*
Y94134D02*
D03*
D21*
X266437Y62500D02*
D03*
X258563Y58760D02*
D03*
Y66240D02*
D03*
X266437Y77500D02*
D03*
X258563Y73760D02*
D03*
Y81240D02*
D03*
D22*
X293980Y87500D02*
D03*
Y82500D02*
D03*
Y32500D02*
D03*
Y37500D02*
D03*
X297130Y45984D02*
D03*
Y65984D02*
D03*
Y49984D02*
D03*
Y57984D02*
D03*
Y61984D02*
D03*
Y53984D02*
D03*
Y69984D02*
D03*
Y73984D02*
D03*
D37*
X291760Y294000D02*
Y304260D01*
X292000Y304500D01*
X235713Y167000D02*
X236500D01*
X228000Y113760D02*
Y159287D01*
X235713Y167000D01*
X148500Y352892D02*
Y353467D01*
X147318Y352318D02*
X147925D01*
X139000Y174500D02*
Y344000D01*
X148500Y353500D02*
Y361000D01*
X147925Y352318D02*
X148500Y352892D01*
X139000Y344000D02*
X147318Y352318D01*
X148500Y352892D02*
Y360500D01*
X232000Y352892D02*
Y353467D01*
X230818Y352318D02*
X231425D01*
X151500Y325500D02*
X204000D01*
X231425Y352318D02*
X232000Y352892D01*
X204000Y325500D02*
X230818Y352318D01*
X232000Y352892D02*
Y361000D01*
X266500Y186213D02*
Y303500D01*
X315425Y352318D02*
X316000Y352892D01*
X315318Y352318D02*
X315425D01*
X266500Y303500D02*
X315318Y352318D01*
X316000Y352892D02*
Y361000D01*
X143000Y317000D02*
X151500Y325500D01*
X143000Y175500D02*
Y317000D01*
Y175500D02*
X161500Y157000D01*
X181000D01*
X139000Y174500D02*
X167000Y146500D01*
X150487Y345000D02*
X156740D01*
X148500Y346987D02*
X150487Y345000D01*
X156740D02*
X157500Y345760D01*
X183000Y146500D02*
X188500Y152000D01*
X167000Y146500D02*
X183000D01*
X181787Y167000D02*
X188500Y160287D01*
X181000Y167000D02*
X181787D01*
X188500Y152000D02*
Y160287D01*
X236500Y157000D02*
X237287D01*
X266500Y186213D01*
X157500Y353240D02*
Y360500D01*
X325000Y353240D02*
Y360500D01*
X240500Y353240D02*
Y360500D01*
X317987Y345000D02*
X324240D01*
X325000Y345760D01*
X316000Y346987D02*
X317987Y345000D01*
X233987D02*
X239740D01*
X240500Y345760D01*
X232000Y346987D02*
X233987Y345000D01*
X213000Y113760D02*
Y122000D01*
X181787Y287000D02*
X214500Y254287D01*
Y130000D02*
Y254287D01*
X181000Y287000D02*
X181787D01*
X206500Y122000D02*
X214500Y130000D01*
X206500Y109500D02*
Y122000D01*
X210500Y105500D02*
X220500D01*
X206500Y109500D02*
X210500Y105500D01*
X223000Y108000D02*
Y113760D01*
X220500Y105500D02*
X223000Y108000D01*
X181787Y297000D02*
X218000Y260787D01*
X181000Y297000D02*
X181787D01*
X218000Y113760D02*
Y260787D01*
X291760Y212000D02*
Y225667D01*
Y239333D01*
Y253000D01*
Y266667D01*
X317047Y212000D02*
X317047Y212000D01*
X299240Y212000D02*
X317047D01*
X322953Y212000D02*
X322953Y212000D01*
X299240Y266667D02*
X317047D01*
X317047Y266667D01*
X299240Y253000D02*
X317047D01*
X299240Y239333D02*
X317047D01*
X299240Y225667D02*
X317047D01*
X322953Y266667D02*
X323119Y266833D01*
X317047Y253000D02*
X317047Y253000D01*
X317047Y239333D02*
X317047Y239333D01*
X317047Y225667D02*
X317047Y225667D01*
X322953Y253000D02*
X322953Y253000D01*
X322953Y239333D02*
X323036Y239417D01*
X322953Y225667D02*
X323036Y225583D01*
X291760Y266667D02*
Y280333D01*
X330500Y294000D02*
X330500Y294000D01*
X299240Y294000D02*
X317047D01*
X322953D02*
X322953Y294000D01*
X330500D01*
X291760Y280333D02*
Y294000D01*
X299240D02*
X299240Y294000D01*
X323119Y266833D02*
X330333D01*
X330500Y267000D01*
X330500Y253000D02*
X330500Y253000D01*
X322953Y253000D02*
X330500D01*
X330417Y239417D02*
X330500Y239500D01*
X323036Y239417D02*
X330417D01*
X323036Y225583D02*
X330417D01*
X330500Y225500D01*
X322953Y212000D02*
X330500D01*
X317047Y280333D02*
X317047Y280333D01*
X299240Y280333D02*
X317047D01*
X323036Y280417D02*
X330417D01*
X322953Y280333D02*
X323036Y280417D01*
X330417D02*
X330500Y280500D01*
D38*
X259500Y303500D02*
X299000Y343000D01*
X259500Y289213D02*
Y303500D01*
X299000Y343000D02*
Y385441D01*
X339500D01*
X255250D02*
X299000D01*
X237287Y267000D02*
X259500Y289213D01*
X236500Y267000D02*
X237287D01*
X140559Y385441D02*
X171000D01*
X33069Y453000D02*
X73000D01*
X140559Y385441D01*
X18998Y434500D02*
Y438929D01*
X33069Y453000D01*
X171000Y385441D02*
X255250D01*
X18998Y368083D02*
Y434500D01*
Y301667D02*
Y368083D01*
Y235250D02*
Y301667D01*
Y168833D02*
Y235250D01*
Y102417D02*
Y168833D01*
Y36000D02*
Y102417D01*
D39*
X19000Y433500D02*
D03*
X46559D02*
D03*
X19000Y367333D02*
D03*
X46559D02*
D03*
X18941Y301167D02*
D03*
X46500D02*
D03*
X19000Y235000D02*
D03*
X46559D02*
D03*
X19000Y168833D02*
D03*
X46559D02*
D03*
X19000Y102667D02*
D03*
X46559D02*
D03*
X19000Y36500D02*
D03*
X46559D02*
D03*
D40*
X171500Y385441D02*
D03*
Y413000D02*
D03*
X256000Y385441D02*
D03*
Y413000D02*
D03*
X338500Y385941D02*
D03*
Y413500D02*
D03*
D41*
X350000Y116000D02*
D03*
Y313500D02*
D03*
X115000Y85000D02*
D03*
Y446500D02*
D03*
X336500Y85000D02*
D03*
Y35000D02*
D03*
D42*
X236500Y157000D02*
D03*
Y167000D02*
D03*
Y177000D02*
D03*
Y187000D02*
D03*
Y197000D02*
D03*
Y207000D02*
D03*
Y217000D02*
D03*
Y227000D02*
D03*
Y237000D02*
D03*
Y247000D02*
D03*
Y257000D02*
D03*
Y267000D02*
D03*
Y277000D02*
D03*
Y287000D02*
D03*
X181000Y157000D02*
D03*
Y167000D02*
D03*
Y177000D02*
D03*
Y187000D02*
D03*
Y197000D02*
D03*
Y207000D02*
D03*
Y217000D02*
D03*
Y227000D02*
D03*
Y237000D02*
D03*
Y247000D02*
D03*
Y257000D02*
D03*
Y267000D02*
D03*
Y277000D02*
D03*
Y287000D02*
D03*
D43*
X236500Y297000D02*
D03*
X181000D02*
D03*
D44*
X114705Y28858D02*
D03*
X140295D02*
D03*
X114705Y11142D02*
D03*
X140295D02*
D03*
X162705Y28858D02*
D03*
X188295D02*
D03*
X162705Y11142D02*
D03*
X188295D02*
D03*
D45*
X291760Y304260D02*
D03*
X336500Y17000D02*
D03*
Y104000D02*
D03*
X151500Y48500D02*
D03*
X200500Y39500D02*
D03*
X157500Y360500D02*
D03*
X325000D02*
D03*
X240500D02*
D03*
X148500Y361000D02*
D03*
X232000D02*
D03*
X316000D02*
D03*
X213000Y122000D02*
D03*
X330500Y212000D02*
D03*
Y225500D02*
D03*
Y239500D02*
D03*
Y253000D02*
D03*
Y267000D02*
D03*
Y280500D02*
D03*
Y294000D02*
D03*
X252500Y62240D02*
D03*
Y77760D02*
D03*
M02*
