G04*
G04 #@! TF.GenerationSoftware,Altium Limited,Altium Designer,21.7.2 (23)*
G04*
G04 Layer_Color=8388736*
%FSLAX25Y25*%
%MOIN*%
G70*
G04*
G04 #@! TF.SameCoordinates,2167A7DA-B4CF-4ED0-A09D-CB439950EC41*
G04*
G04*
G04 #@! TF.FilePolarity,Negative*
G04*
G01*
G75*
%ADD21R,0.03347X0.03347*%
%ADD23R,0.03950X0.03950*%
%ADD24R,0.06509X0.04737*%
%ADD25R,0.03162X0.06902*%
%ADD26R,0.04737X0.06509*%
%ADD27R,0.03950X0.03950*%
%ADD28R,0.16154X0.10642*%
%ADD29R,0.12808X0.03202*%
%ADD30R,0.08800X0.18800*%
%ADD31R,0.18800X0.08800*%
%ADD32C,0.06800*%
%ADD33O,0.08674X0.07099*%
%ADD34R,0.08674X0.07099*%
%ADD35C,0.07690*%
%ADD36C,0.05800*%
D21*
X266437Y62500D02*
D03*
X258563Y58760D02*
D03*
Y66240D02*
D03*
X266437Y77500D02*
D03*
X258563Y73760D02*
D03*
Y81240D02*
D03*
D23*
X148500Y352892D02*
D03*
Y346987D02*
D03*
X232000Y352892D02*
D03*
Y346987D02*
D03*
X316000Y352892D02*
D03*
Y346987D02*
D03*
D24*
X157500Y345760D02*
D03*
Y353240D02*
D03*
X200500Y16760D02*
D03*
Y24240D02*
D03*
X151500Y16760D02*
D03*
Y24240D02*
D03*
X275000Y66240D02*
D03*
Y58760D02*
D03*
X240500Y345760D02*
D03*
Y353240D02*
D03*
X325000Y345760D02*
D03*
Y353240D02*
D03*
X275000Y81240D02*
D03*
Y73760D02*
D03*
D25*
X228000Y113760D02*
D03*
X223000D02*
D03*
X218000D02*
D03*
X213000D02*
D03*
X228000Y92500D02*
D03*
X223000D02*
D03*
X218000D02*
D03*
X213000D02*
D03*
D26*
X299240Y225667D02*
D03*
X291760D02*
D03*
X299240Y239333D02*
D03*
X291760D02*
D03*
X299240Y266667D02*
D03*
X291760D02*
D03*
X299240Y253000D02*
D03*
X291760D02*
D03*
X299240Y212000D02*
D03*
X291760D02*
D03*
X299240Y294000D02*
D03*
X291760D02*
D03*
X299240Y280333D02*
D03*
X291760D02*
D03*
X242240Y57500D02*
D03*
X234760D02*
D03*
X242240Y66167D02*
D03*
X234760D02*
D03*
X242240Y83500D02*
D03*
X234760D02*
D03*
X242240Y74833D02*
D03*
X234760D02*
D03*
D27*
X322953Y280333D02*
D03*
X317047D02*
D03*
X322953Y294000D02*
D03*
X317047D02*
D03*
X322953Y266667D02*
D03*
X317047D02*
D03*
X322953Y239333D02*
D03*
X317047D02*
D03*
X322953Y212000D02*
D03*
X317047D02*
D03*
X322953Y253000D02*
D03*
X317047D02*
D03*
X322953Y225667D02*
D03*
X317047D02*
D03*
D28*
X336500Y25866D02*
D03*
Y94134D02*
D03*
D29*
X293980Y87500D02*
D03*
Y82500D02*
D03*
Y32500D02*
D03*
Y37500D02*
D03*
X297130Y45984D02*
D03*
Y65984D02*
D03*
Y49984D02*
D03*
Y57984D02*
D03*
Y61984D02*
D03*
Y53984D02*
D03*
Y69984D02*
D03*
Y73984D02*
D03*
D30*
X19000Y433500D02*
D03*
X46559D02*
D03*
X19000Y367333D02*
D03*
X46559D02*
D03*
X18941Y301167D02*
D03*
X46500D02*
D03*
X19000Y235000D02*
D03*
X46559D02*
D03*
X19000Y168833D02*
D03*
X46559D02*
D03*
X19000Y102667D02*
D03*
X46559D02*
D03*
X19000Y36500D02*
D03*
X46559D02*
D03*
D31*
X171500Y385441D02*
D03*
Y413000D02*
D03*
X256000Y385441D02*
D03*
Y413000D02*
D03*
X338500Y385941D02*
D03*
Y413500D02*
D03*
D32*
X350000Y116000D02*
D03*
Y313500D02*
D03*
X115000Y85000D02*
D03*
Y446500D02*
D03*
X336500Y85000D02*
D03*
Y35000D02*
D03*
D33*
X236500Y157000D02*
D03*
Y167000D02*
D03*
Y177000D02*
D03*
Y187000D02*
D03*
Y197000D02*
D03*
Y207000D02*
D03*
Y217000D02*
D03*
Y227000D02*
D03*
Y237000D02*
D03*
Y247000D02*
D03*
Y257000D02*
D03*
Y267000D02*
D03*
Y277000D02*
D03*
Y287000D02*
D03*
X181000Y157000D02*
D03*
Y167000D02*
D03*
Y177000D02*
D03*
Y187000D02*
D03*
Y197000D02*
D03*
Y207000D02*
D03*
Y217000D02*
D03*
Y227000D02*
D03*
Y237000D02*
D03*
Y247000D02*
D03*
Y257000D02*
D03*
Y267000D02*
D03*
Y277000D02*
D03*
Y287000D02*
D03*
D34*
X236500Y297000D02*
D03*
X181000D02*
D03*
D35*
X114705Y28858D02*
D03*
X140295D02*
D03*
X114705Y11142D02*
D03*
X140295D02*
D03*
X162705Y28858D02*
D03*
X188295D02*
D03*
X162705Y11142D02*
D03*
X188295D02*
D03*
D36*
X291760Y304260D02*
D03*
X336500Y17000D02*
D03*
Y104000D02*
D03*
X151500Y48500D02*
D03*
X200500Y39500D02*
D03*
X157500Y360500D02*
D03*
X325000D02*
D03*
X240500D02*
D03*
X148500Y361000D02*
D03*
X232000D02*
D03*
X316000D02*
D03*
X213000Y122000D02*
D03*
X330500Y212000D02*
D03*
Y225500D02*
D03*
Y239500D02*
D03*
Y253000D02*
D03*
Y267000D02*
D03*
Y280500D02*
D03*
Y294000D02*
D03*
X252500Y62240D02*
D03*
Y77760D02*
D03*
M02*
